<svg xmlns="http://www.w3.org/2000/svg" width="1920" height="1534.233" viewBox="0 0 1920 1534.233"><g transform="translate(0 -946.696)"><path d="M0,0H1920V1392.484H0Z" transform="translate(0 1088.446)" fill="#30385a"/><path d="M65.959,27.906H43.127V5.074A5.074,5.074,0,0,0,38.053,0H32.979a5.074,5.074,0,0,0-5.074,5.074V27.906H5.074A5.074,5.074,0,0,0,0,32.979v5.074a5.074,5.074,0,0,0,5.074,5.074H27.906V65.959a5.074,5.074,0,0,0,5.074,5.074h5.074a5.074,5.074,0,0,0,5.074-5.074V43.127H65.959a5.074,5.074,0,0,0,5.074-5.074V32.979A5.074,5.074,0,0,0,65.959,27.906Z" transform="translate(96.402 1100.69) rotate(-21)" fill="#3348a0"/><path d="M59.6,25.216H38.969V4.585A4.585,4.585,0,0,0,34.385,0H29.8a4.585,4.585,0,0,0-4.585,4.585V25.216H4.585A4.585,4.585,0,0,0,0,29.8v4.585a4.585,4.585,0,0,0,4.585,4.585H25.216V59.6A4.585,4.585,0,0,0,29.8,64.185h4.585A4.585,4.585,0,0,0,38.969,59.6V38.969H59.6a4.585,4.585,0,0,0,4.585-4.585V29.8A4.585,4.585,0,0,0,59.6,25.216Z" transform="translate(190.333 1251.61)" fill="#3348a0"/><path d="M29.321.563A28.759,28.759,0,1,0,58.08,29.321,28.754,28.754,0,0,0,29.321.563Z" transform="translate(95.839 1206.244)" fill="#3348a0"/><path d="M20.321.562A19.759,19.759,0,1,0,40.08,20.321,19.755,19.755,0,0,0,20.321.562Z" transform="translate(182.345 1017.155)" fill="#30385a"/><path d="M36,36H0V0H36Z" transform="translate(234.267 1096.42) rotate(31)" fill="#3348a0"/><path d="M11.987,1.321.368,20.719a2.744,2.744,0,0,0,2.346,4.116H25.952A2.744,2.744,0,0,0,28.3,20.719L16.679,1.321a2.744,2.744,0,0,0-4.692,0Z" transform="translate(271.766 994.838) rotate(73)" fill="#30385a"/><g transform="translate(766.846 1048.425)"><g transform="translate(0 15.333)"><path d="M18361.277,6000.4a.849.849,0,0,0,.408-.356c.207-.355-.025-.2.459-.326a.992.992,0,0,1,.609-.067l.57.2c-.053.424-.1.816-.166,1.271-.166,1.11-.865,1.781-.924,3.281a2.446,2.446,0,0,1-.6-.246c-.107-.054-.162-.081-.279-.15-.082-.049-.234-.115-.281-.157-.215-.193.035-.309-.346-.518-.234-.129-.229-.28-.439-.4a3.77,3.77,0,0,0,.719-1.056A4.112,4.112,0,0,0,18361.277,6000.4Zm8.059-10.25c-.148,0-.217-.125-.291-.227-.8-1.083-.1-2.706,1.295-1.99a1.833,1.833,0,0,1,.859,1.438,1.231,1.231,0,0,1-.346.866A5.032,5.032,0,0,0,18369.336,5990.148Zm1.074,23.474h.27l.73-.488c.1-.075.262-.2.34-.267.145-.12.213-.149.338-.254.172-.146.09-.286.209-.405.09-.092.232-.073.434-.182a10.261,10.261,0,0,0,1.994-1.635l.557-.656c.111-.163.262-.367.215-.555-.035-.141-.139-.157-.164-.228-.045-.132.125-.289-.105-.808l-.027-.063a.186.186,0,0,0-.014-.03,3.1,3.1,0,0,0-.557-.662l-.48-.281a1.807,1.807,0,0,0-1.346.012,3.783,3.783,0,0,0-.895.64c-.186-.3-.162-.294-.648-.273a1.466,1.466,0,0,1-.068-.2l-.125-.353a2.826,2.826,0,0,0-.9-1.414l-.473-.322c0-.018-.02-.017-.031-.026a3.8,3.8,0,0,0,.367-1.992l.063-.024.031-.013.029-.015.055-.035c-.033-.634.18-.017.209-.914a1.577,1.577,0,0,0,.32.048,2.256,2.256,0,0,0,.334.015,4.37,4.37,0,0,0,.883-.17l.818-.229c1.082-.329.439-.148,1-.063a.813.813,0,0,0,.887-.434,2.6,2.6,0,0,0,.854-.226,4.5,4.5,0,0,0,1.244-.822,1.314,1.314,0,0,0,.371-.617v-.27l-.062-.164c-.074-.28-.064-.437-.1-.558a.5.5,0,0,0-.057-.164c-.053-.134.014.007-.041-.1-.086-.161-.137-.158-.211-.3a.16.16,0,0,1-.016-.028l-.082-.226a.908.908,0,0,0-.338-.449c-.611-.386-.3-.433-.855-.738l-.025-.015-.246-.1a1.493,1.493,0,0,0-1.254.462c-.125.123-.055.142-.223.226a.711.711,0,0,0-.594-.14c-.727.247-.689,1.028-.641,1.684l-.025.026-.023.025-.025.022s-.051.044-.068.061c-.205.187-.168.208-.275.461a6.381,6.381,0,0,0-.992.353l-1.133-.31a.351.351,0,0,1-.146-.092c1.295-.1,1.416-.62,2.094-1.33a3.209,3.209,0,0,0,.51-.831c.141-.342.092-.1.289-.363.176-.235.1-.357.2-.49a1.376,1.376,0,0,0,.514-.88,1.306,1.306,0,0,0-.043-.565.981.981,0,0,0-.074-.263c-.367-.731-.85-.726-1.539-.821l-.1-.971a2.9,2.9,0,0,0,1.563-.777c.41-.45.559-1.042,0-1.44a.969.969,0,0,0-.1-.07,3.526,3.526,0,0,0-1.234-.3l-.143-.606a4.539,4.539,0,0,0-.381-.974c0-.008-.012-.019-.016-.026l-.035-.049c0-.008-.012-.018-.016-.025a3.725,3.725,0,0,0-.309-.438l-.754-.711c-.008,0-.018-.013-.027-.018a1.121,1.121,0,0,0-.146-.071l-.057-.028-.023-.015-.055-.026-.029-.013-.061-.026a.892.892,0,0,0-.137-.052c-.215-.067-.395-.07-.6-.146h-.742c-.059.035.012.008-.078.037-.023.008-.086.02-.109.025l-.18.041a5.513,5.513,0,0,0-.988.359,7.263,7.263,0,0,0-1.131.633l-.889.77a9,9,0,0,0-1.52,2.171c-.391.734-.387.246-1.029.741a1.353,1.353,0,0,0-.42,1.311,1.336,1.336,0,0,0,.051.221l.186.471c.029.061.057.108.074.141l.16.272c.023.037.061.108.076.128l-.029.07a1.676,1.676,0,0,0-.2,1.027,1.771,1.771,0,0,0,.039.18,2.553,2.553,0,0,0,.678,1.166c-.232.026-.357-.025-.619,0l-1.145.18a4.157,4.157,0,0,1-.832.16c-.238-.023-.465-.209-.844-.187a.973.973,0,0,0-.664.326c-.344.386-.348.147-1.184.462a4.711,4.711,0,0,0-1.072.578l-.271.2a2.137,2.137,0,0,0-.424.411c-.018.024-.107.159-.121.184a1.492,1.492,0,0,0-.135.532c-.066.991.316,1.036.459,1.532.191.663.338.477.592.7.1.084.107.283.219.432a.9.9,0,0,0,.914.332c.045.3.488.384.893.336a.37.37,0,0,1-.021.035c0,.008-.014.023-.02.033l-1.02,1.28c-.076.1-.07.07-.109.177.086.14.053.059.16.164-.162.22-.479.354-.68.543l-.09.087a10.921,10.921,0,0,0-1.039,1.3l-.3.541c.1.157.156.147.2.238a2.338,2.338,0,0,1,.049.3,1.644,1.644,0,0,0,2.666.615,1.052,1.052,0,0,0,.086-.089l.273-.3c.633.186.383-.239,1.066,0l1.113.366c.051.015.1.028.158.046a4.63,4.63,0,0,0,2.535-.012l1.32-.365a10.059,10.059,0,0,0,1.713.7l.242.106c.215.108.27.455.367.675l.1.241a.15.15,0,0,1,.014.026l.014.027.83,1.506a2.483,2.483,0,0,1,.391.646c.061.276-.006.433.223.563l.061.028c.184.117.293.519.537.674l.285.157C18370.1,6013.421,18370.238,6013.34,18370.41,6013.622Z" transform="translate(-18355.586 -5987.03)" fill="#30385a" fill-rule="evenodd"/><path d="M20071.266,6110.678l.156-.537c.055-.216.1-.388.148-.589.18.131.2.366.43.52a.687.687,0,0,1,.105-.243c.023-.04.047-.075.066-.106l.09-.127c.031.366.266.841.26,1.169.148-.04.391-.285.391-.39a11.178,11.178,0,0,0-.693-1.559c-.2.053-.07.033-.3.476-.207-.137-.42-.5-.65-.563-.133.629-.59,1.389-.406,1.614.043.051.125.118.18.173C20071.139,6110.62,20071.127,6110.642,20071.266,6110.678Z" transform="translate(-20057.385 -6107.776)" fill="#30385a" fill-rule="evenodd"/></g><g transform="translate(184.721)"><rect width="1.223" height="39.138" transform="translate(7.629 0.881)" fill="#30385a"/><ellipse cx="0.881" cy="0.881" rx="0.881" ry="0.881" transform="translate(7.629)" fill="#30385a" stroke="#30385a" stroke-miterlimit="22.926" stroke-width="20"/><path d="M26738.889,18454.336h3.352a.572.572,0,0,1,.625.506v1.9a.573.573,0,0,1-.625.5h-3.352a.577.577,0,0,1-.629-.5v-1.9A.576.576,0,0,1,26738.889,18454.336Z" transform="translate(-26732.018 -18417.227)" fill="#30385a" fill-rule="evenodd"/><path d="M24328.273,4737.778a.6.6,0,0,0,.025.185l.029.046a.227.227,0,0,1,.016.02c.107.152-.016-.036.037.048.4-.006.4-.514.6-.52l.111.031c.076-.089.088-.143.188-.208.061.082.1.146.154.213.2-.075.184-.046.313.147.2.3.223.41.49.278l.092-.241c.078.151.189.208.188.424-.006.268-.17.187-.227.4.125.206.066.035.252.2a.481.481,0,0,1,.146.386c-.037.453-.225.333-.584.942a1.245,1.245,0,0,0-.141.381c-.148.444-.576.172-.705.183,0,0-.152.042-.186.051a.471.471,0,0,1-.189.041c-.387-.032-.209-.474-.674-.989-.117-.129-.562-.46-.27-.935.07-.111.178-.138.3-.218-.006-.25-.129-.192-.2-.4A.388.388,0,0,1,24328.273,4737.778Zm3.668,4.855h.016l.063-6.694a3.585,3.585,0,0,0-.539.194l-.51.2-3.088,1.236c-1.139.456-2.734,1.048-3.867,1.535l-.252.093a8.8,8.8,0,0,0,.916.4,1.116,1.116,0,0,1,.113.041c.139.06-.092-.036.07.036l.055.021.742.308a.2.2,0,0,1,.025.013c.01,0,.018.009.025.012l2.164.89c.012,0,.037.02.047.023l1.24.514.023.012,1.348.557.053.022c.074.03.086.036.131.056l1.137.474C24331.914,4742.613,24331.893,4742.594,24331.941,4742.633Z" transform="translate(-24323.764 -4734.301)" fill="#30385a" fill-rule="evenodd"/><path d="M26103.719,5993.4l.188-.183.148.145c.1-.02.32,0,.438-.007l.109-.149c.047.042.09.095.105.109s.012.014.02.02l.109.074a2.03,2.03,0,0,0,.344-.947.636.636,0,0,0-.5.437c-.148-.13-.035-.132-.191-.211l-.109-.04c-.121-.037.141,0-.094-.023l-.23.061c-.238.113-.012.089-.16.214-.047-.03-.039-.039-.074-.1a.562.562,0,0,0-.27-.252l-.074-.037a.313.313,0,0,0-.109-.052,1.192,1.192,0,0,0,0,.154l.051.173a1.979,1.979,0,0,0,.2.473.292.292,0,0,1,.023.048A.668.668,0,0,0,26103.719,5993.4Z" transform="translate(-26098.76 -5987.572)" fill="#30385a" fill-rule="evenodd"/></g><path d="M26185.5,5711.237a.7.7,0,0,0,.371.017c-.047-.084.023-.012-.066-.087l-.137-.084-.023-.016a.194.194,0,0,0-.023-.016.887.887,0,0,0-.121-.062Z" transform="translate(-25807.967 -5706.83)" fill="#30385a" fill-rule="evenodd"/><path d="M26581.207,5720.049c.012,0,.184.005.27.007.1-.123.09-.116.059-.256l-.3.171C26581.117,5720.073,26581.188,5719.984,26581.207,5720.049Z" transform="translate(-26202.609 -5715.617)" fill="#30385a" fill-rule="evenodd"/><path d="M9693.323,15840.006v-.924c-.068-.133-.021-.443-.125-.639-.275-.055-.585.008-.79-.127a2.7,2.7,0,0,0-.62-.293,2.641,2.641,0,0,0-1.521.037c0-.088.239-.594.292-.734.088-.234.189-.506.261-.756.082-.285.139-.531.205-.828a3.366,3.366,0,0,0,.043-.918,3.123,3.123,0,0,0,0-.939,5.592,5.592,0,0,0-.458-1.566,6.2,6.2,0,0,0-.382-.629,3.933,3.933,0,0,0-.471-.568,5.018,5.018,0,0,0-.516-.5,3.3,3.3,0,0,0-.679-.354c-.117-.062-.184-.15-.293-.219a3.353,3.353,0,0,0-1.063-.48,5.522,5.522,0,0,0-2.749-.074c-.217-.238-.344-.227-.66-.186l.4-.719a4.267,4.267,0,0,0,.329-2.768,3.508,3.508,0,0,0-1.733-2.611,3.347,3.347,0,0,1,.061-.441,4.467,4.467,0,0,0-.612-2.754,2.317,2.317,0,0,0-2.686-.92c-.332.127-.519.324-.659.27a1.971,1.971,0,0,0-.791-.184,1.673,1.673,0,0,0-1.726,1.189c-.075.287-.056.568-.126.838-.175.664-.222,1.512-.266,1.658a4.239,4.239,0,0,0-3.483,5,5.614,5.614,0,0,0,.5,1.646,4.261,4.261,0,0,0,2.206,2.1c.517.207.5.219.743-.055a3.424,3.424,0,0,1,.554-.51,7.849,7.849,0,0,0,.88.459,6.048,6.048,0,0,0,2.978.029c.24-.039.277.131.383.232a.916.916,0,0,0-.516.244c-.343.266-.569.537-.336.988a1.075,1.075,0,0,0,.375.377c-.013.088-.053.217-.074.322-.044.2-.024.123-.135.242l-.587.578c-.161.162-.191.1-.357.014l-.361-.2c.01-.3.277-.75-.255-1.285a3.473,3.473,0,0,0-.507-.352,3.7,3.7,0,0,0-1.639-.9.805.805,0,0,0-.932.568c-.017.1.015.1-.039.164-.046.041-.31.057-.4.1-.583.242-.426.82-.444,1.025a.519.519,0,0,0-.468.242c-.692,1.066,1.1,2.359,2.036,2.49.411.057.859-.061,1.192.121.154.084.337.152.48.225a3.144,3.144,0,0,0,1.615.414c.652-.039.671-.332,1-.41a2.433,2.433,0,0,0,.261.646c.023.066.022.123.04.188s.035.1.06.166a5.968,5.968,0,0,0,.83,1.373,1.767,1.767,0,0,0,.424.459c.077.068.142.166.216.24a6.347,6.347,0,0,0,1.278.926,3.858,3.858,0,0,1-.408.643c-.136-.066-.247-.2-.387-.234-.3-.082-.647.236-.713.492-.051.2.051.311.062.484a.587.587,0,0,1-.557-.346,2.016,2.016,0,0,0-1.746-.959,2.16,2.16,0,0,0-1.229.59,2.929,2.929,0,0,0-.22.234l-.136.221a4.34,4.34,0,0,0-.434,1.463c-.3.4-.3.5.033.863a2.221,2.221,0,0,0,.454.457,5.843,5.843,0,0,0,2.017,1.148,7.086,7.086,0,0,1,.675.223l-.067.334a7.329,7.329,0,0,0,2.069,1.121c.449.145.431.078.643-.25.094-.146.093-.191.243-.289.115-.074.214-.129.321-.211a2.2,2.2,0,0,0,.8-1.3,5.341,5.341,0,0,0,.054-.934c.322-.062.592-.018.759-.455s-.11-.617-.331-.793c.025-.08.338-.527.453-.807a1.723,1.723,0,0,1,.218-.414l.285-.328a4.225,4.225,0,0,0,.82.525c.56.236.768.057,1.107.061.05.535.219.512.544.664a4.659,4.659,0,0,0-.2.729,1.82,1.82,0,0,0,.959,1.781,2.382,2.382,0,0,0,1.486.264c.565-.062.756-.324,1.074-.3.42.039.482.072.592-.322a7.987,7.987,0,0,0,.06-3.17.168.168,0,0,1,.05-.033c.09-.047.219-.023.28-.105C9693.255,15841.639,9693.235,15840.174,9693.323,15840.006Z" transform="translate(-9307.015 -15805.528)" fill="#30385a" fill-rule="evenodd"/></g><path d="M42.929,18.162H28.069V3.3a3.3,3.3,0,0,0-3.3-3.3h-3.3a3.3,3.3,0,0,0-3.3,3.3v14.86H3.3a3.3,3.3,0,0,0-3.3,3.3v3.3a3.3,3.3,0,0,0,3.3,3.3h14.86v14.86a3.3,3.3,0,0,0,3.3,3.3h3.3a3.3,3.3,0,0,0,3.3-3.3V28.069h14.86a3.3,3.3,0,0,0,3.3-3.3v-3.3A3.3,3.3,0,0,0,42.929,18.162Z" transform="translate(1626.186 1251.452)" fill="#3348a0"/><path d="M59.6,25.216H38.969V4.585A4.585,4.585,0,0,0,34.385,0H29.8a4.585,4.585,0,0,0-4.585,4.585V25.216H4.585A4.585,4.585,0,0,0,0,29.8v4.585a4.585,4.585,0,0,0,4.585,4.585H25.216V59.6A4.585,4.585,0,0,0,29.8,64.185h4.585A4.585,4.585,0,0,0,38.969,59.6V38.969H59.6a4.585,4.585,0,0,0,4.585-4.585V29.8A4.585,4.585,0,0,0,59.6,25.216Z" transform="matrix(0.966, 0.259, -0.259, 0.966, 1762.732, 1145.787)" fill="#3348a0"/><path d="M29.332,12.41H19.178V2.256A2.257,2.257,0,0,0,16.922,0H14.666A2.257,2.257,0,0,0,12.41,2.256V12.41H2.256A2.257,2.257,0,0,0,0,14.666v2.256a2.257,2.257,0,0,0,2.256,2.256H12.41V29.332a2.257,2.257,0,0,0,2.256,2.256h2.256a2.257,2.257,0,0,0,2.256-2.256V19.178H29.332a2.257,2.257,0,0,0,2.256-2.256V14.666A2.257,2.257,0,0,0,29.332,12.41Z" transform="matrix(0.966, 0.259, -0.259, 0.966, 1597.147, 988.898)" fill="#30385a"/><path d="M22.419.562A21.856,21.856,0,1,0,44.275,22.419,21.852,21.852,0,0,0,22.419.562Z" transform="translate(1646.096 1038.312)" fill="#30385a"/><path d="M36,36H0V0H36Z" transform="translate(1520.224 1096.049) rotate(-17)" fill="#3348a0"/><path d="M25.348,2.793.777,43.811a5.8,5.8,0,0,0,4.961,8.7H54.879a5.8,5.8,0,0,0,4.961-8.7L35.269,2.793a5.8,5.8,0,0,0-9.921,0Z" transform="translate(1710.043 1076.301) rotate(22)" fill="#3348a0"/><path d="M24,0l3,6H22.5l-3-6h-3l3,6H15L12,0H9l3,6H7.5l-3-6H3A3,3,0,0,0,.015,3L0,21a3.009,3.009,0,0,0,3,3H27a3.009,3.009,0,0,0,3-3V0Z" transform="translate(219.164 952.139) rotate(17)" fill="#30385a"/><path d="M13.61,0V2.074H11.666V0H3.889V2.074H1.944V0H0V18.665H1.944V16.591H3.889v2.074h7.777V16.591H13.61v2.074h1.944V0ZM3.889,14.517H1.944V12.443H3.889Zm0-4.148H1.944V8.3H3.889Zm0-4.148H1.944V4.148H3.889Zm9.721,8.3H11.666V12.443H13.61Zm0-4.148H11.666V8.3H13.61Zm0-4.148H11.666V4.148H13.61Z" transform="translate(273.767 953.76) rotate(49)" fill="#30385a"/><g transform="matrix(0.966, 0.259, -0.259, 0.966, 1658.901, 959.265)"><path d="M28.638,0H2.862A2.845,2.845,0,0,0,0,2.813V19.688A2.845,2.845,0,0,0,2.862,22.5H10.02v2.813H21.473V22.5h7.158a2.833,2.833,0,0,0,2.848-2.812l.014-16.875A2.834,2.834,0,0,0,28.638,0Zm0,19.687H2.862V2.813h25.77V19.688Z" transform="translate(0 0)" fill="#30385a"/><rect width="28" height="19" transform="translate(2 2)" fill="#30385a"/><rect width="25" height="2" rx="1" transform="translate(3 25)" fill="#30385a"/></g><path d="M13.739,0H1.953A1.953,1.953,0,0,0,0,1.953V13.739a1.953,1.953,0,0,0,1.953,1.953H13.739a1.953,1.953,0,0,0,1.953-1.953V1.953A1.953,1.953,0,0,0,13.739,0Zm7.74,1.541L17,4.63v6.432l4.479,3.085a1.31,1.31,0,0,0,2.06-1.054V2.6A1.311,1.311,0,0,0,21.48,1.541Z" transform="matrix(0.875, -0.485, 0.485, 0.875, 1595.994, 958.109)" fill="#30385a"/></g></svg>