<svg xmlns="http://www.w3.org/2000/svg" xmlns:xlink="http://www.w3.org/1999/xlink" width="73.541" height="48.404" viewBox="0 0 73.541 48.404"><defs><linearGradient id="a" y1="0.5" x2="1" y2="0.5" gradientUnits="objectBoundingBox"><stop offset="0" stop-color="#32efcb"/><stop offset="1" stop-color="#8c78de" stop-opacity="0.349"/></linearGradient><linearGradient id="b" y1="0.5" x2="1" y2="0.5" gradientUnits="objectBoundingBox"><stop offset="0" stop-color="#f700f7"/><stop offset="1" stop-color="#8e74de" stop-opacity="0.345"/></linearGradient></defs><g transform="translate(-360 -11.798)"><path d="M40.12,20.3,6.844.623A4.512,4.512,0,0,0,0,4.527,166.079,166.079,0,0,1,1.371,24.3,160.557,160.557,0,0,1,0,43.863a4.534,4.534,0,0,0,6.844,3.9L40.12,28.1A4.533,4.533,0,0,0,40.12,20.3Z" transform="translate(360 11.796)" fill="url(#a)"/><path d="M36.241,17.822,6.182.547a4.511,4.511,0,0,0-3.824-.2A3.7,3.7,0,0,0,0,3.976,137.289,137.289,0,0,1,1.353,21.622,118.923,118.923,0,0,1,0,38.516a4.1,4.1,0,0,0,6.182,3.428L36.241,24.678A3.925,3.925,0,0,0,36.241,17.822Z" transform="translate(395.286 14.746)" fill="url(#b)"/><text transform="translate(394.9 41.2)" fill="#fff" font-size="15" font-family="Helvetica-Bold, Helvetica" font-weight="700"><tspan x="-32.505" y="0">Medianet</tspan></text></g></svg>